<svg xmlns="http://www.w3.org/2000/svg"
 xmlns:xlink="http://www.w3.org/1999/xlink"
 width="9px" height="13px"  viewBox="0 0 9 13">
<path fill-rule="evenodd"  fill="#3a3f42"
 d="M5.999939,6.0 C5.999939,6.0 7.9999084,6.0 7.9999084,6.0 C7.9999084,6.0 7.9999084,7.999878 7.9999084,7.999878 C7.9999084,7.999878 5.999939,7.999878 5.999939,7.999878 C5.999939,7.999878 5.999939,6.0 5.999939,6.0 ZM3.9999695,3.999878 C3.9999695,3.999878 5.999939,3.999878 5.999939,3.999878 C5.999939,3.999878 5.999939,6.0 5.999939,6.0 C5.999939,6.0 3.9999695,6.0 3.9999695,6.0 C3.9999695,6.0 3.9999695,3.999878 3.9999695,3.999878 ZM3.9999695,7.999878 C3.9999695,7.999878 5.999939,7.999878 5.999939,7.999878 C5.999939,7.999878 5.999939,9.999878 5.999939,9.999878 C5.999939,9.999878 3.9999695,9.999878 3.9999695,9.999878 C3.9999695,9.999878 3.9999695,7.999878 3.9999695,7.999878 ZM2.0,9.999878 C2.0,9.999878 3.9999695,9.999878 3.9999695,9.999878 C3.9999695,9.999878 3.9999695,12.0 3.9999695,12.0 C3.9999695,12.0 2.0,12.0 2.0,12.0 C2.0,12.0 2.0,9.999878 2.0,9.999878 ZM2.0,1.9998779 C2.0,1.9998779 3.9999695,1.9998779 3.9999695,1.9998779 C3.9999695,1.9998779 3.9999695,3.999878 3.9999695,3.999878 C3.9999695,3.999878 2.0,3.999878 2.0,3.999878 C2.0,3.999878 2.0,1.9998779 2.0,1.9998779 Z"/>
</svg>